<svg xmlns="http://www.w3.org/2000/svg" viewBox="0 0 132 32"><linearGradient id="b" x1="0" x2="0" y1="0" y2="1"><stop offset="0" stop-color="#6cf"/><stop offset="1" stop-color="#0a8"/></linearGradient><path fill="url(#b)" fill-rule="evenodd" d="M4.03 10.68a27.65 27.65 0 0 1 .36-3.5A8.08 8.08 0 0 0 2.5 8.21c-.16.14-.3.3-.41.49A.53.53 0 0 0 2 9c0 .11.03.21.09.3.11.19.25.35.41.49.26.22.55.4.85.56.22.12.45.23.68.33Zm9.34-4.64a28.45 28.45 0 0 1 .62 5.88 25 25 0 0 0 2.14-.22 18.6 18.6 0 0 0 3.31-.81c.42-.15.82-.33 1.21-.54.3-.16.59-.34.85-.56.16-.14.3-.3.41-.49A.53.53 0 0 0 22 9a.53.53 0 0 0-.09-.3 1.94 1.94 0 0 0-.41-.49 4.8 4.8 0 0 0-.85-.56 8.75 8.75 0 0 0-1.21-.54 18.6 18.6 0 0 0-3.31-.81c-.91-.13-1.83-.22-2.76-.26ZM12 12c0-1.39-.1-2.77-.3-4.13a16.6 16.6 0 0 0-.39-1.86 28.33 28.33 0 0 0-4.76.54A28.59 28.59 0 0 0 6 11.31c.62.17 1.24.3 1.87.39 1.36.2 2.75.3 4.13.3Zm-.08 2c-.04.71-.12 1.43-.22 2.13a18.6 18.6 0 0 1-.81 3.31c-.15.42-.33.82-.54 1.21-.16.3-.34.59-.56.85-.14.16-.3.3-.49.41A.53.53 0 0 1 9 22a.53.53 0 0 1-.3-.09 1.94 1.94 0 0 1-.49-.41 4.8 4.8 0 0 1-.56-.85 8.75 8.75 0 0 1-.54-1.21 18.6 18.6 0 0 1-.81-3.31c-.13-.9-.22-1.83-.26-2.76a28.45 28.45 0 0 0 5.88.63ZM7.17 4.4c.14-.37.3-.71.48-1.05.16-.3.34-.59.56-.85.14-.16.3-.3.49-.41A.53.53 0 0 1 9 2c.11 0 .21.03.3.09.19.11.35.25.49.41.22.26.4.55.56.85.12.22.23.45.33.68a27.65 27.65 0 0 0-3.5.36Zm6.76 9.53a23.18 23.18 0 0 1-1.16 6.18c-.18.51-.4 1-.65 1.48-.22.42-.49.82-.79 1.18-.29.35-.63.64-1.02.87-.4.23-.85.36-1.31.36-.46 0-.91-.13-1.31-.36a3.86 3.86 0 0 1-1.02-.87c-.3-.36-.57-.76-.79-1.18-.25-.48-.47-.97-.65-1.48-.42-1.2-.72-2.43-.9-3.68a27.5 27.5 0 0 1-.32-3.62l-.12-.04c-.51-.18-1-.4-1.48-.65a6.75 6.75 0 0 1-1.18-.79 3.86 3.86 0 0 1-.87-1.02C.13 9.91 0 9.46 0 9c0-.46.13-.91.36-1.31.23-.39.52-.73.87-1.02.36-.3.76-.57 1.18-.79a11.45 11.45 0 0 1 2.5-.98 11.45 11.45 0 0 1 .98-2.5c.21-.41.48-.81.78-1.17.29-.35.63-.64 1.02-.87C8.09.13 8.54 0 9 0c.46 0 .91.13 1.31.36.39.23.73.52 1.02.87.3.36.57.76.79 1.18.25.48.47.97.65 1.48l.04.12c1.2.03 2.42.13 3.62.32 1.25.18 2.48.48 3.68.9.51.18 1 .4 1.48.65.42.22.82.49 1.18.79.35.29.64.63.87 1.02.23.4.36.85.36 1.31 0 .46-.13.91-.36 1.31-.23.39-.52.73-.87 1.02-.36.3-.76.57-1.18.79-.48.25-.97.47-1.48.65a23.18 23.18 0 0 1-6.18 1.16ZM7 9.2a2 2 0 1 1 4 0 2 2 0 0 1-4 0Z"/><path fill="url(#b)" d="M97.4 17.78h-3.15V2.85h5.89q1.7 0 2.9.65 1.19.64 1.82 1.78.63 1.14.63 2.63t-.64 2.62q-.64 1.14-1.86 1.78-1.21.63-2.93.63h-3.75v-2.53h3.24q.91 0 1.5-.32.6-.31.9-.88.29-.56.29-1.3t-.3-1.3q-.3-.56-.89-.87-.6-.3-1.52-.3h-2.12v12.34Zm12.98.21q-1.07 0-1.9-.37-.85-.38-1.33-1.12-.49-.74-.49-1.85 0-.93.35-1.56.34-.64.93-1.03.59-.38 1.34-.58.76-.2 1.59-.28.98-.1 1.57-.19.6-.09.87-.27.27-.18.27-.54v-.04q0-.7-.43-1.08-.44-.38-1.23-.38-.84 0-1.33.37-.5.37-.66.92l-2.87-.23q.22-1.02.86-1.77.64-.74 1.66-1.15 1.01-.4 2.35-.4.94 0 1.8.22.85.21 1.52.67.66.46 1.05 1.18t.39 1.72v7.55h-2.95v-1.55h-.08q-.27.52-.73.92-.45.4-1.08.62-.64.22-1.47.22Zm.9-2.14q.68 0 1.2-.28.53-.27.83-.73.3-.47.3-1.06v-1.19q-.15.1-.4.17-.25.08-.57.14-.31.06-.63.1l-.56.1q-.55.07-.96.25-.4.17-.63.47-.23.3-.23.73 0 .63.46.97.47.33 1.18.33Zm10.92 1.93h-3.1V6.58h3.1v11.2Zm-1.53-12.64q-.7 0-1.2-.46-.49-.46-.49-1.11 0-.65.5-1.1.5-.47 1.18-.47.7 0 1.2.46.48.46.48 1.1 0 .65-.49 1.12-.5.46-1.18.46Zm7.12 12.64h-3.1V6.58h3v1.96h.12q.3-1.04 1.03-1.58.72-.54 1.66-.54.23 0 .5.03t.48.08V9.3q-.22-.07-.6-.12-.4-.05-.72-.05-.68 0-1.22.3-.53.3-.84.81-.31.53-.31 1.22v6.33Zm-92.63 0H32V2.85h5.89q1.7 0 2.89.6 1.2.6 1.83 1.7.63 1.1.63 2.58t-.64 2.55q-.64 1.07-1.86 1.64-1.21.57-2.93.57h-3.94V9.95h3.43q.9 0 1.5-.25.6-.24.9-.74.29-.5.29-1.23 0-.75-.3-1.26-.3-.5-.9-.77-.6-.27-1.5-.27h-2.13v12.35Zm1.5-6.8h3.4l3.71 6.8H40.3l-3.63-6.8ZM50.33 18q-1.73 0-2.98-.7-1.24-.7-1.9-2-.68-1.3-.68-3.07 0-1.72.67-3.03.67-1.3 1.9-2.03 1.21-.73 2.86-.73 1.1 0 2.07.35.96.35 1.67 1.06.72.7 1.12 1.78.4 1.06.4 2.5v.85h-9.45v-1.93h6.53q0-.67-.29-1.19-.3-.51-.8-.8-.52-.3-1.2-.3-.7 0-1.25.32-.54.32-.85.87-.3.54-.31 1.2v1.83q0 .83.3 1.44.32.6.89.93.57.33 1.35.33.51 0 .94-.14.43-.15.74-.44.3-.3.47-.72l2.87.2q-.22 1.03-.9 1.8-.67.77-1.73 1.2-1.06.42-2.45.42Zm10.35 0q-1.07 0-1.9-.38-.84-.38-1.33-1.12-.48-.74-.48-1.85 0-.93.34-1.56.34-.64.93-1.03.6-.38 1.35-.58.75-.2 1.58-.28.98-.1 1.58-.19.6-.09.86-.27.27-.18.27-.54v-.04q0-.7-.43-1.08-.43-.38-1.23-.38-.84 0-1.33.37-.5.37-.66.92l-2.87-.23q.22-1.02.86-1.77.64-.74 1.66-1.15 1.02-.4 2.36-.4.93 0 1.79.22.85.21 1.52.67.67.46 1.05 1.18.39.72.39 1.72v7.55h-2.95v-1.55h-.08q-.27.52-.73.92-.45.4-1.08.62-.64.22-1.47.22Zm.9-2.15q.68 0 1.2-.28.53-.27.83-.73.3-.47.3-1.06v-1.19q-.15.1-.4.17-.25.08-.57.14l-.62.1-.57.1q-.55.07-.96.25-.4.17-.63.47-.23.3-.23.73 0 .63.47.97.46.33 1.17.33ZM74.45 18q-1.72 0-2.96-.73-1.23-.74-1.9-2.04-.65-1.3-.65-3 0-1.72.67-3.03.66-1.3 1.9-2.03 1.23-.73 2.93-.73 1.46 0 2.56.53t1.74 1.5q.64.96.71 2.25h-2.93q-.12-.83-.65-1.35-.53-.51-1.38-.51-.72 0-1.26.39t-.83 1.13q-.3.74-.3 1.8 0 1.07.3 1.82.29.76.83 1.15.54.4 1.26.4.53 0 .95-.23.43-.21.71-.63.28-.42.37-1.01h2.93q-.07 1.28-.7 2.25-.62.98-1.71 1.52-1.1.55-2.59.55Zm6.21-11.42h6.74v2.34h-6.74V6.58Zm1.53 8.17V3.9h3.1v10.44q0 .43.14.67.13.23.37.33.23.1.55.1.22 0 .43-.05l.34-.06.49 2.31-.66.17q-.42.1-1.03.12-1.12.05-1.96-.3-.84-.34-1.3-1.06-.48-.72-.47-1.82Z"/><path fill="none" stroke="#0a8" stroke-linecap="round" stroke-linejoin="round" stroke-width="2" d="M69 25v6l6-6m7 6v-6l6 6v-6m12 0v6l3-3v3l3-3v-3m-27 6v-6l-6 6h3m37 0v-6l-6 6h3m21 0h-6v-6h6m-15 6v-6h6v3h-3l3 3m-25-6h-6v6h6v-3h-3m34 0h3"/><path fill="none" stroke="#666" stroke-linecap="round" stroke-linejoin="round" stroke-miterlimit="3" d="M60.5 25.5v3h1a1 1 0 0 0 1-1h0a1 1 0 0 0-1-1h-1m4 4h0a1 1 0 0 0 1-1v-3 2h-1a1 1 0 0 1-1-1v-1"/></svg>
